<?xml version="1.0" encoding="UTF-8" standalone="no"?>
<svg
   width="37.103386mm"
   height="49.334972mm"
   viewBox="0 0 105.17495 139.84716"
   version="1.1"
   id="svg3639"
   xml:space="preserve"
   xmlns="http://www.w3.org/2000/svg"
   xmlns:svg="http://www.w3.org/2000/svg"
   xmlns:rdf="http://www.w3.org/1999/02/22-rdf-syntax-ns#"
   xmlns:cc="http://creativecommons.org/ns#"
   xmlns:dc="http://purl.org/dc/elements/1.1/"><metadata
     id="metadata1"><rdf:RDF><cc:Work><dc:type
           rdf:resource="http://purl.org/dc/dcmitype/StillImage" /><dc:date>2024-04-11T14:22:44.396703</dc:date><dc:format>image/svg+xml</dc:format><dc:creator><cc:Agent><dc:title>Matplotlib v3.5.3, https://matplotlib.org/</dc:title></cc:Agent></dc:creator></cc:Work></rdf:RDF></metadata><defs
     id="defs1"><style
       type="text/css"
       id="style1">*{stroke-linejoin: round; stroke-linecap: butt}</style></defs><defs
     id="defs3639" /><g
     transform="matrix(0.01204186,0,0,-0.01204186,-25.709414,148.45682)"
     fill="#000000"
     stroke="none"
     id="g8"><path
       d="m 6290,12318 c -157,-13 -429,-54 -570,-86 -131,-30 -432,-113 -427,-118 2,-2 61,2 132,8 150,12 436,5 637,-17 717,-76 1405,-339 2000,-765 197,-141 334,-256 512,-430 247,-242 405,-432 601,-725 443,-663 701,-1412 766,-2228 15,-199 7,-717 -16,-897 -124,-1007 -521,-1881 -1183,-2607 -112,-123 -115,-122 58,-20 523,309 1001,761 1346,1272 374,555 603,1159 694,1835 27,199 38,672 21,882 -74,884 -405,1696 -969,2378 -111,134 -397,423 -527,531 -696,583 -1516,916 -2429,989 -151,12 -496,11 -646,-2 z"
       id="path1-6"
       style="fill:#0004b6;fill-opacity:1" /><path
       d="M 5516,11259 C 4182,11134 3020,10311 2465,9100 2309,8758 2206,8396 2153,8000 c -14,-107 -18,-201 -18,-455 1,-342 9,-441 61,-709 170,-887 673,-1692 1404,-2251 l 65,-49 -61,69 c -528,605 -797,1351 -771,2140 25,758 305,1445 813,1998 367,398 876,705 1396,842 682,179 1410,102 2033,-215 918,-467 1531,-1375 1635,-2419 13,-134 13,-470 0,-602 -60,-593 -289,-1158 -656,-1619 -69,-86 -324,-347 -424,-434 l -55,-48 60,33 c 549,296 1038,757 1378,1299 85,135 242,442 296,580 130,329 215,680 253,1040 17,171 14,566 -6,743 -84,733 -350,1375 -810,1951 -111,140 -416,442 -568,564 -537,428 -1170,695 -1868,788 -147,19 -640,28 -794,13 z"
       id="path2-7"
       style="fill:#3f8600;fill-opacity:1" /><path
       d="m 5380,9123 c -584,-45 -1139,-298 -1552,-706 -382,-377 -633,-871 -713,-1402 -19,-131 -31,-422 -20,-520 l 7,-70 29,111 c 152,602 564,1121 1106,1393 278,140 516,199 835,208 207,6 315,-3 497,-43 806,-179 1450,-870 1600,-1719 34,-189 43,-481 21,-660 -57,-472 -260,-916 -571,-1249 -39,-42 -68,-76 -64,-76 3,0 65,30 136,66 628,319 1090,899 1269,1591 93,356 99,763 19,1143 -56,263 -202,604 -358,836 -379,567 -981,958 -1641,1068 -190,31 -423,43 -600,29 z"
       id="path3-5"
       style="fill:#8e4d00;fill-opacity:1" /><path
       d="m 8265,2310 c -103,-14 -186,-39 -285,-87 -82,-41 -108,-60 -195,-147 -75,-75 -111,-120 -139,-174 -82,-159 -112,-296 -103,-480 7,-138 24,-208 79,-320 79,-162 229,-288 418,-354 92,-32 100,-33 260,-33 143,0 176,3 244,23 168,48 326,159 412,288 74,112 132,296 148,466 6,59 4,70 -14,88 -19,19 -32,20 -358,20 -255,0 -342,-3 -354,-12 -11,-9 -22,-48 -32,-121 -27,-186 -37,-177 175,-177 116,0 159,-3 159,-12 0,-28 -45,-100 -86,-138 -75,-69 -122,-85 -244,-85 -130,1 -194,23 -274,96 -98,90 -143,215 -133,369 14,204 130,378 294,440 78,29 222,25 297,-8 71,-32 133,-86 167,-148 26,-45 36,-54 58,-54 36,0 260,87 285,110 25,24 15,63 -36,142 -148,229 -435,348 -743,308 z"
       id="path4-35"
       style="fill:#8e4d00;fill-opacity:1" /><path
       d="m 4893,2280 c -12,-5 -24,-21 -27,-37 -11,-54 -176,-1416 -176,-1453 0,-25 5,-40 16,-44 9,-3 197,-6 419,-6 310,0 405,3 413,12 5,7 18,75 27,151 17,129 17,140 1,155 -14,15 -49,18 -234,22 l -218,5 16,125 15,125 211,3 c 165,2 214,5 223,16 15,18 45,257 37,289 -3,14 -16,27 -28,31 -13,3 -107,6 -210,6 h -188 v 23 c 0,12 7,69 15,127 8,58 15,108 15,113 0,4 98,7 219,7 163,0 221,3 229,13 5,6 18,74 27,150 17,129 17,140 1,155 -15,15 -57,17 -399,19 -210,1 -392,-2 -404,-7 z"
       id="path5-6"
       style="fill:#8e4d00;fill-opacity:1" /><path
       d="m 6238,2283 c -10,-2 -22,-20 -27,-41 -5,-20 -49,-360 -97,-756 -85,-698 -87,-719 -69,-732 28,-21 338,-20 358,1 17,16 17,20 52,325 15,124 30,233 33,243 6,14 51,-54 188,-280 l 180,-298 187,-3 c 203,-3 227,2 227,44 0,16 -60,121 -158,278 -88,138 -162,256 -166,263 -4,8 17,23 61,44 190,91 279,275 252,519 -27,238 -159,359 -425,390 -86,10 -561,12 -596,3 z m 549,-330 c 51,-27 73,-73 73,-153 -1,-151 -85,-219 -272,-220 -38,0 -68,3 -68,8 0,18 42,369 46,381 7,21 173,8 221,-16 z"
       id="path6-2"
       style="fill:#8e4d00;fill-opacity:1" /><path
       d="m 9598,2283 c -9,-2 -19,-12 -23,-21 -3,-9 -47,-348 -97,-754 -74,-601 -88,-740 -78,-753 18,-22 821,-23 840,0 13,15 39,190 40,263 0,37 -4,44 -26,52 -14,6 -117,10 -230,10 -159,0 -204,3 -204,13 0,17 19,174 25,215 l 6,32 h 214 c 143,0 216,4 221,11 10,16 34,196 34,257 0,47 -3,53 -26,62 -14,6 -111,10 -215,10 h -190 l 7,53 c 4,28 12,88 18,132 l 11,80 224,5 225,5 7,27 c 12,44 31,231 28,263 -3,21 -11,31 -29,36 -27,8 -754,10 -782,2 z"
       id="path7-9"
       style="fill:#8e4d00;fill-opacity:1" /><path
       d="m 2742,2268 c -12,-15 -472,-1464 -472,-1488 0,-36 20,-40 202,-40 162,0 178,2 187,18 19,35 221,736 248,859 15,68 28,121 29,120 2,-1 10,-62 19,-135 18,-148 166,-824 186,-848 9,-12 32,-14 108,-12 l 96,3 202,395 c 176,344 240,476 267,554 12,33 13,13 5,-59 -10,-86 10,-853 22,-877 9,-16 28,-18 183,-18 142,0 176,3 186,15 10,12 8,163 -9,747 -12,403 -26,743 -31,756 -10,22 -10,22 -207,20 l -198,-3 -191,-375 c -106,-206 -204,-406 -220,-445 -15,-38 -31,-74 -35,-78 -4,-5 -10,20 -14,55 -17,150 -157,811 -177,836 -8,9 -59,12 -193,12 -134,0 -185,-3 -193,-12 z"
       id="path8-1"
       style="fill:#8e4d00;fill-opacity:1" /></g></svg>
